<svg width="32" height="32" viewBox="0 0 32 32" fill="none" xmlns="http://www.w3.org/2000/svg">
<path d="M26.4351 10.3759L26.4352 10.3761C26.5325 10.885 26.4498 11.4126 26.2009 11.8666C25.9519 12.3208 25.552 12.673 25.0701 12.8599L25.0696 12.8601L24.4291 13.1078L26.4351 10.3759ZM26.4351 10.3759L25.8875 7.51975L25.8875 7.51973C25.7835 6.97778 25.5283 6.47655 25.1512 6.07561C24.774 5.67461 24.2905 5.39069 23.7576 5.25834L23.7576 5.25833L13.4426 2.69795C12.1878 2.38645 10.8625 2.58937 9.75552 3.26165C8.64877 3.93379 7.85058 5.02004 7.53238 6.28274L7.53236 6.28283L5.61892 13.8818L5.6189 13.8819C5.51153 14.3087 5.50189 14.7545 5.5907 15.1856C5.6795 15.6166 5.86449 16.0219 6.13196 16.3703C6.39945 16.7188 6.74246 17.0012 7.13511 17.1958C7.52779 17.3903 7.95949 17.4915 8.39721 17.4915M26.4351 10.3759L8.39721 17.4915M14.3187 26.7387C14.3871 26.4672 14.4588 26.1965 14.5337 25.9268L14.3187 26.7387ZM14.3187 26.7387C14.0618 27.7273 13.936 27.945 13.9198 27.945C12.7461 27.945 11.882 26.5977 11.882 24.2495C11.882 23.0392 12.3228 21.0525 13.2126 18.3415M14.3187 26.7387L19.8274 16.9064M19.8274 16.9064L19.8274 16.9065L15.9505 23.0486L15.9498 23.0498C15.8548 23.1993 15.7809 23.3657 15.7314 23.54L15.7309 23.5416C15.3904 24.7252 15.1529 25.5656 15.0155 26.0605L15.0155 26.0607C14.9416 26.3265 14.871 26.5932 14.8036 26.8608L14.8027 26.8645C14.6719 27.3674 14.5716 27.6863 14.4982 27.8854C14.4618 27.9841 14.4291 28.0615 14.3993 28.1207C14.3852 28.1487 14.3659 28.1843 14.3413 28.2195C14.3301 28.2356 14.3075 28.2667 14.2739 28.2996C14.2574 28.3158 14.2267 28.3438 14.1828 28.3707C14.146 28.3933 14.0521 28.445 13.9198 28.445C13.1098 28.445 12.4548 27.9699 12.0274 27.2272C11.6063 26.4955 11.382 25.476 11.382 24.2495C11.382 22.9525 11.8468 20.8994 12.7375 18.1858M19.8274 16.9064C20.921 15.1734 22.5341 13.8425 24.4286 13.1079L19.8274 16.9064ZM12.7375 18.1858C12.7375 18.1857 12.7375 18.1856 12.7375 18.1856L13.2126 18.3415M12.7375 18.1858C12.7374 18.1858 12.7374 18.1859 12.7374 18.1859L13.2126 18.3415M12.7375 18.1858C12.7636 18.106 12.7706 18.0208 12.758 17.9375C12.7454 17.8541 12.7134 17.7754 12.6653 17.7078C12.6171 17.6402 12.5542 17.5857 12.4822 17.5483C12.4102 17.5109 12.3308 17.4916 12.2505 17.4915M13.2126 18.3415C13.2631 18.1873 13.2767 18.0231 13.2524 17.8626C13.228 17.702 13.1664 17.5495 13.0725 17.4177C12.9787 17.286 12.8553 17.1786 12.7125 17.1045C12.5697 17.0304 12.4116 16.9917 12.2511 16.9915M12.2505 17.4915H12.2511V16.9915M12.2505 17.4915L12.2511 16.9915M12.2505 17.4915H8.39726L8.39721 16.9915M12.2511 16.9915H8.39721M8.39721 16.9915V17.4915M8.39721 16.9915C8.03668 16.9915 7.68091 16.9081 7.35705 16.7477C7.0332 16.5873 6.74983 16.3541 6.52858 16.0658C6.30732 15.7776 6.15403 15.442 6.08041 15.0847C6.00679 14.7273 6.01479 14.3577 6.10379 14.0039L8.39721 17.4915M16.002 26.3485L16.0019 26.3492C15.9477 26.5446 15.8966 26.7404 15.7954 27.1368C15.5459 28.0963 15.3228 28.6841 15.0415 29.0373C14.7996 29.341 14.4911 29.5001 13.9185 29.5001C12.838 29.5001 11.9685 28.9943 11.3506 28.0954C10.7227 27.1819 10.3522 25.852 10.3522 24.2495C10.3522 23.0797 10.6716 21.4125 11.3386 19.1889L11.5317 18.5453H10.8597H8.39586H8.39574C7.80326 18.5454 7.21836 18.4084 6.68562 18.1446C6.15287 17.8807 5.68614 17.4968 5.32142 17.0216C4.95668 16.5465 4.7037 15.9927 4.58221 15.4026C4.46072 14.8125 4.47404 14.2021 4.62112 13.618L4.13626 13.4959L4.62112 13.618L6.53456 6.01904C6.92109 4.48408 7.89006 3.16755 9.22853 2.35436C10.5668 1.54131 12.167 1.2965 13.6818 1.67224L23.9967 4.2326L23.9968 4.23261C24.7187 4.41174 25.3756 4.79679 25.8894 5.34308C26.4033 5.88939 26.7523 6.57405 26.8945 7.31626C26.8945 7.31629 26.8945 7.31632 26.8945 7.31635L27.4408 10.1724L27.4408 10.1726C27.5856 10.928 27.4627 11.7106 27.0944 12.3826C26.7261 13.0545 26.1366 13.572 25.4306 13.8458L24.7912 14.0936L24.7911 14.0936C23.0999 14.7491 21.6621 15.9361 20.6883 17.479L20.6882 17.4791L16.8147 23.6202C16.7719 23.6873 16.7389 23.7601 16.7165 23.8363L16.7157 23.8391C16.3776 25.0168 16.1392 25.8563 16.002 26.3485Z" fill="#5E5E75" stroke="#5E5E75"/>
</svg>
